<svg width="800" height="400" viewBox="0 0 800 400" xmlns="http://www.w3.org/2000/svg"><defs><pattern id="satori_pattern_id_0" x="0" y="0" width="1" height="1" patternUnits="objectBoundingBox"><linearGradient id="satori_biid_0" x1="0" y1="0" x2="0" y2="1"><stop offset="0%" stop-color="#dbf4ff"/><stop offset="100%" stop-color="#fff1f1"/></linearGradient><rect x="0" y="0" width="800" height="400" fill="url(#satori_biid_0)"/></pattern></defs><mask id="satori_om-id"><rect x="0" y="0" width="800" height="400" fill="#fff"/></mask><rect x="0" y="0" width="800" height="400" fill="url(#satori_pattern_id_0)"/><mask id="satori_om-id-0"><rect x="294" y="164" width="212" height="72" fill="#fff"/></mask><path fill="black" d="M330.3 191.0L321.5 191.0Q321.2 188.5 319.3 187.0Q317.3 185.6 314.0 185.6L314.0 185.6Q311.7 185.6 310.2 186.2Q308.6 186.9 307.8 188.0Q307.0 189.1 307.0 190.5L307.0 190.5Q307.0 191.7 307.5 192.5Q308.0 193.4 309 194.0Q310.0 194.7 311.2 195.1Q312.5 195.6 313.9 195.9L313.9 195.9L317.8 196.8Q320.7 197.5 323.1 198.5Q325.4 199.6 327.2 201.2Q328.9 202.7 329.9 204.8Q330.9 206.9 330.9 209.7L330.9 209.7Q330.9 213.7 328.9 216.6Q326.9 219.5 323.1 221.1Q319.3 222.7 314.0 222.7L314.0 222.7Q308.7 222.7 304.8 221.1Q300.9 219.5 298.7 216.3Q296.5 213.1 296.4 208.4L296.4 208.4L305.3 208.4Q305.5 210.6 306.6 212.1Q307.7 213.5 309.6 214.3Q311.5 215.0 313.9 215.0L313.9 215.0Q316.2 215.0 317.9 214.3Q319.7 213.6 320.6 212.4Q321.6 211.2 321.6 209.6L321.6 209.6Q321.6 208.2 320.7 207.2Q319.9 206.2 318.2 205.5Q316.6 204.8 314.2 204.2L314.2 204.2L309.4 203.0Q303.9 201.6 300.7 198.8Q297.5 195.9 297.5 191.1L297.5 191.1Q297.5 187.1 299.7 184.2Q301.8 181.2 305.5 179.6Q309.3 177.9 314.1 177.9L314.1 177.9Q318.9 177.9 322.6 179.6Q326.2 181.2 328.2 184.2Q330.2 187.1 330.3 191.0L330.3 191.0ZM351.1 205.8L345.1 212.7L345.2 201.8L346.5 201.8L357.0 189.4L367.4 189.4L353.3 205.8L351.1 205.8ZM346.0 222.1L336.9 222.1L336.9 178.5L346.0 178.5L346.0 222.1ZM368.0 222.1L357.4 222.1L347.7 207.9L353.8 201.5L368.0 222.1ZM377.9 234.4L377.9 234.4Q376.2 234.4 374.7 234.1Q373.2 233.9 372.2 233.5L372.2 233.5L374.3 226.7Q375.9 227.2 377.1 227.2Q378.4 227.3 379.4 226.6Q380.3 226.0 380.9 224.4L380.9 224.4L381.5 223.1L369.7 189.4L379.3 189.4L386.0 213.4L386.4 213.4L393.2 189.4L402.8 189.4L390.1 225.7Q389.2 228.3 387.6 230.3Q386.1 232.2 383.7 233.3Q381.3 234.4 377.9 234.4ZM426.5 222.1L417.5 222.1L405.0 178.5L415.1 178.5L422.3 208.8L422.7 208.8L430.6 178.5L439.2 178.5L447.2 208.9L447.6 208.9L454.8 178.5L464.9 178.5L452.4 222.1L443.4 222.1L435.1 193.6L434.8 193.6L426.5 222.1ZM481.5 186.1L468.1 186.1L468.1 178.5L504.0 178.5L504.0 186.1L490.6 186.1L490.6 222.1L481.5 222.1L481.5 186.1Z "/></svg>